<?xml version="1.0" encoding="UTF-8" standalone="no"?><svg xmlns="http://www.w3.org/2000/svg" xmlns:xlink="http://www.w3.org/1999/xlink" fill="#000000" height="594.5" preserveAspectRatio="xMidYMid meet" version="1" viewBox="29.3 0.0 783.3 594.5" width="783.3" zoomAndPan="magnify"><g fill="#cbc7b7" id="change1_1"><path d="M232.2,254.6c-36.8,0-71.3,12.5-98.7,32.9c2.3-86.2,68.9-171.5,199.7-257.7L313.6,0 C124.1,117.5,29.3,247.5,29.3,387.7c0,65,17.2,115.1,52.5,152s79.9,54.8,133.9,54.8s97.1-14.9,130.8-43.9 c32.9-29.8,49.3-65,49.3-106.5c0-0.8,0-0.8,0-1.6c0.8-7,1.6-14.9,1.6-22.7C397.4,329,323,254.6,232.2,254.6z" fill="inherit"/><path d="M766.4,534.2c2.3-2.3,4.7-4.7,7-7c24.3-29,39.2-65.8,39.2-106.5c0-91.6-74.4-165.3-165.3-165.3 c-41.5,0-79.9,15.7-108.9,41.5c0-0.8,0-1.6,0-3.1c0-87.7,66.6-175.5,200.5-263.2L719.4,0C529,117.5,434.3,247.5,434.3,387.7 c0,65,17.2,115.1,52.5,152s79.9,54.8,133.9,54.8s97.1-14.9,130.8-43.9c4.7-3.9,8.6-8.6,12.5-13.3 C764.8,536.5,765.6,535.8,766.4,534.2z" fill="inherit"/></g></svg>